<svg width="501" height="265" viewBox="0 0 501 265" fill="none" xmlns="http://www.w3.org/2000/svg">
<path fill-rule="evenodd" clip-rule="evenodd" d="M488.3 7.63696C482.068 13.5818 479.31 15.2019 470.592 18.0426L460.265 21.4066L459.887 15.3593C459.433 8.10915 455.945 4.90502 450.102 6.3728C436.441 9.80053 421.567 18.9395 415.728 27.4926C414.116 29.8547 412.126 32.047 411.305 32.3643C410.486 32.6829 406.731 29.9085 402.963 26.2009C393.608 16.9933 371.771 6.2179 357.053 3.54592C325.476 -2.18653 286.429 8.69001 255.373 31.8697C250.278 35.6721 233.023 51.2381 217.028 66.4592C186.315 95.6861 165.801 112.8 155.467 117.818C142.406 124.158 128.69 128.073 116.808 128.854C105.75 129.581 104.949 129.457 98.7072 126.06C86.5078 119.42 84.3105 114.173 87.5009 99.2962C89.2297 91.2316 86.9475 86.7895 81.0739 86.7895C78.9927 86.7895 77.0141 86.0038 76.6393 85.0282C75.7611 82.7384 78.7954 76.9735 82.8964 73.1435C86.5165 69.7608 86.97 66.1332 84.2243 62.5043C83.2162 61.1702 82.3905 58.487 82.3905 56.5396C82.3905 52.5097 78.9053 50.5635 71.6913 50.5635C69.3316 50.5635 67.4004 50.1138 67.4004 49.5642C67.4004 47.6205 70.4359 45.5668 73.3115 45.5668C84.0831 45.5668 91.753 56.2547 91.3046 70.6402C90.9998 80.4425 93.9116 85.5403 99.8164 85.5403C101.744 85.5403 104.047 86.4173 104.937 87.4878C107.124 90.1223 107.067 101.447 104.842 106.52C102.382 112.126 104.275 113.229 115.536 112.75C123.918 112.394 124.621 112.119 130.786 106.809C140.262 98.6467 143.759 91.4602 144.047 79.5531L144.281 69.9257L148 69.5035C153.04 68.9301 154.842 67.18 154.842 62.8604C154.842 58.542 149.944 48.4149 146.233 45.0609C142.544 41.7269 142.942 40.5701 147.778 40.5701C152.253 40.5701 156.092 37.4734 156.092 33.8633C156.092 27.6175 144.648 12.5799 136.729 8.42144C126.095 2.83639 103.106 1.3149 87.7232 5.17859C73.0542 8.86365 53.4484 23.8687 47.0427 36.313C42.9004 44.3614 39.9199 53.8788 39.9199 59.0591L39.9186 64.4318L35.7414 61.2452C30.1676 56.9943 23.2547 56.8893 20.5515 61.0141C17.8782 65.0926 15.922 88.6146 17.3923 98.9964C18.0219 103.441 20.0356 110.142 21.8681 113.885C25.0772 120.446 37.2666 136.811 41.5763 140.344C44.7654 142.961 44.0771 145.481 39.9461 146.308C35.3729 147.222 33.3517 149.492 33.8889 153.114C34.9394 160.196 45.8597 162.923 73.344 162.964C88.6938 162.988 103.814 160.682 118.864 156.024C120.315 155.574 121.582 156.522 122.88 159.032C125.205 163.526 129.759 164.839 135.158 162.569C138.592 161.127 149.189 153.042 157.674 145.392C158.889 144.298 161.418 142.635 163.296 141.699C165.173 140.762 169.379 138.144 172.643 135.879C175.906 133.616 178.577 132.418 178.577 133.219C178.577 136.538 166.757 153.295 161.338 157.658C158.124 160.246 154.363 163.404 152.981 164.674C148.814 168.509 137.308 176.043 127.043 181.657C117.655 186.792 115.822 188.942 116.33 194.218C117.192 203.15 115.968 208.118 111.759 212.779C106.904 218.15 94.0653 227.093 83.7508 232.284C70.2173 239.097 41.2153 244.72 35.4703 241.646C31.122 239.318 31.7078 237.981 36.717 238.793C41.8174 239.621 49.2612 235.641 50.6952 231.319C52.3054 226.464 51.3536 214.376 48.9302 208.897C47.6385 205.977 44.4381 201.706 41.8199 199.406C37.1205 195.281 36.9219 195.231 26.7124 195.659C14.9752 196.151 11.8235 197.776 5.63011 206.531C-1.24409 216.251 -0.580777 232.753 7.18158 245.1C9.0416 248.058 13.8709 252.806 17.9145 255.65C24.5163 260.293 26.174 260.877 34.1537 261.363C52.5178 262.479 93.2645 253.162 112.652 243.413C117.272 241.09 121.917 239.189 122.974 239.189C124.09 239.189 126.115 241.95 127.815 245.793C131.159 253.355 135.058 256.41 142.702 257.458C148.955 258.315 149.31 257.985 153.585 247.308C155.236 243.186 159.088 235.597 162.145 230.444C169.377 218.256 193.125 170.869 194.234 166.413C195.298 162.138 197.314 160.683 197.314 164.187C197.314 170.383 203.679 190.16 212.607 211.707C215.026 217.547 217.394 225.028 217.866 228.331C218.874 235.374 220.335 236.254 228.364 234.654C233.96 233.54 234.407 233.678 241.035 238.604C255.972 249.703 275.756 259.365 290.247 262.639C301.345 265.148 326.249 265.065 340.679 262.474C359.323 259.125 377.742 247.74 389.915 232.037C399.124 220.16 404.538 204.335 404.633 189.019C404.679 181.54 402.074 166.043 399.759 160.027C398.999 158.055 397.861 152.796 397.231 148.34C396.6 143.884 395.813 139.967 395.481 139.636C395.149 139.305 392.504 138.499 389.601 137.847C386.699 137.195 381.174 134.825 377.325 132.579C365.086 125.443 360.111 124.014 345.076 123.319L331.071 122.671L321.967 128.061C310.845 134.645 306.843 138.209 302.779 145.142C298.506 152.434 300.024 155.494 307.91 155.494C310.978 155.494 313.487 155.935 313.487 156.475C313.487 157.013 312.363 160.653 310.989 164.563C307.837 173.528 307.844 178.72 311.018 189.087C314 198.824 317.983 203.746 326.873 208.677C335.753 213.602 336.872 212.401 334.785 200.194C333.59 193.218 333.558 189.802 334.645 185.766C336.169 180.105 339.224 178.742 342.241 182.379C343.27 183.618 345.822 184.236 349.577 184.156C352.744 184.089 356.681 184.217 358.328 184.441C360.896 184.792 361.604 184.024 363.324 179.025C367.254 167.6 373.536 165.045 382.58 171.191C392.504 177.934 396.354 195.635 391.052 210.14C387.612 219.552 378.788 234.168 376.537 234.183C375.831 234.188 373.774 232.505 371.965 230.444C366.854 224.621 364.391 225.486 353.025 237.104C339.484 250.944 334.678 253.157 316.533 253.905C300.496 254.566 286.472 251.749 276.347 245.833C269.209 241.663 256.435 229.619 257.753 228.301C258.266 227.786 261.988 227.529 266.021 227.73C277.425 228.294 282.524 224.729 284.81 214.592C286.041 209.136 284.284 207.307 276.012 205.431C260.516 201.916 245.506 190.576 238.851 177.355C235.82 171.337 233.116 159.804 233.724 155.494C234.215 152.015 233.283 152.104 252.545 153.694C261.75 154.453 263.936 154.26 266.708 152.443C269.28 150.758 269.82 149.634 269.215 147.222C267.189 139.151 262.948 130.062 259.006 125.344C253.303 118.518 254.651 116.977 264.532 119.018C275.81 121.348 280.289 120.961 284.66 117.283C288.904 113.713 289.21 111.948 287.01 103.723C285.691 98.7941 285.854 97.0664 288.395 89.028C296.282 64.0833 297.642 61.7099 309.16 52.7883C326.835 39.0961 336.268 34.8727 352.081 33.5698C373.742 31.7847 405.368 42.8261 419.781 57.2054C424.682 62.0946 424.839 62.4569 422.204 62.8479C420.656 63.0777 413.972 61.575 407.349 59.5101C385.265 52.6234 376.727 51.1331 368.834 52.7883C357.128 55.2442 353.555 59.239 357.466 65.5011C358.711 67.496 358.55 68.378 356.529 70.6127C355.185 72.0992 352.048 74.354 349.56 75.6244C345.456 77.7193 339.468 85.2255 334.676 94.2845C332.528 98.3444 330.074 109.285 330.683 112.085C331.379 115.282 333.679 114.821 343.776 109.463C355.034 103.488 366.11 99.9283 379.069 98.117C384.565 97.35 390.869 96.4319 393.077 96.0796C396.544 95.525 397.783 96.1508 402.156 100.655C406.934 105.581 407.349 105.757 409.509 103.802C410.769 102.663 413.537 98.1645 415.663 93.8049C420.307 84.2799 425.727 79.2945 431.437 79.2945C437.986 79.2945 441.109 84.2412 447.921 105.401C451.39 116.174 452.197 120.678 452.25 129.555C452.287 135.556 451.913 141.119 451.418 141.918C449.366 145.24 444.945 166.177 446.021 167.489C446.64 168.247 452.468 169.24 458.97 169.697C465.47 170.154 472.489 170.868 474.564 171.282C479.285 172.227 480.755 169.367 478.442 163.742C475.887 157.528 469.72 137.264 465.859 122.391C458.073 92.4033 450.444 76.4526 435.641 59.2103C432.352 55.3791 429.66 51.8926 429.66 51.4642C429.66 50.4736 439.35 54.782 442.123 57.0067C448.56 62.1696 453.741 62.9578 464.396 60.397C471.342 58.7294 473.501 56.4746 472.578 51.8589C471.997 48.9508 472.464 48.2301 475.836 46.8347C480.88 44.7449 495.391 28.1471 498.486 20.9257C501.493 13.9103 501.728 2.4454 498.887 1.35487C495.958 0.230619 496.242 0.0607312 488.3 7.63696Z" fill="black"/>
</svg>
